<svg xmlns="http://www.w3.org/2000/svg" xmlns:xlink="http://www.w3.org/1999/xlink" width="600" zoomAndPan="magnify" viewBox="0 0 450 149.999998" height="200" preserveAspectRatio="xMidYMid meet" version="1.2"><defs><clipPath id="b2d32ae963"><path d="M 0 12.878906 L 450 12.878906 L 450 136.628906 L 0 136.628906 Z M 0 12.878906 "/></clipPath></defs><g id="988fd5a580"><g clip-rule="nonzero" clip-path="url(#b2d32ae963)"><path style="fill:none;stroke-width:1;stroke-linecap:butt;stroke-linejoin:miter;stroke:#1d1d1b;stroke-opacity:1;stroke-miterlimit:10;" d="M 1080.50146 539.998001 C 1080.50146 548.833804 1080.281988 557.669608 1079.851171 566.497283 C 1079.412226 575.324958 1078.761937 584.136375 1077.900304 592.931536 C 1077.030542 601.726696 1075.949437 610.489342 1074.656987 619.235731 C 1073.356409 627.973991 1071.844486 636.679737 1070.12122 645.344839 C 1068.397954 654.01807 1066.463344 662.634401 1064.31739 671.210089 C 1062.171436 679.785777 1059.814138 688.296436 1057.245496 696.750195 C 1054.684982 705.212082 1051.913125 713.600812 1048.929923 721.916384 C 1045.954851 730.240085 1042.776563 738.482499 1039.395059 746.651756 C 1036.013556 754.812885 1032.428837 762.892727 1028.65716 770.883155 C 1024.877354 778.865454 1020.902462 786.758338 1016.740612 794.553679 C 1012.570633 802.34902 1008.213696 810.038689 1003.6698 817.614557 C 999.125905 825.198554 994.40318 832.660622 989.493497 840.008889 C 984.583814 847.357156 979.495302 854.575365 974.22796 861.679774 C 968.968747 868.776054 963.530704 875.742276 957.92196 882.570312 C 952.321345 889.406477 946.550029 896.096326 940.616141 902.63986 C 934.682253 909.191523 928.585792 915.588742 922.334888 921.839647 C 916.092112 928.090551 909.686764 934.178883 903.14323 940.112771 C 896.591567 946.046659 889.901718 951.817975 883.073682 957.426719 C 876.237518 963.035463 869.279424 968.465377 862.175015 973.732719 C 855.078735 979.000061 847.852397 984.080444 840.50413 988.990127 C 833.155863 993.89981 825.693795 998.630664 818.117927 1003.174559 C 810.53393 1007.718454 802.844261 1012.075391 795.057049 1016.237242 C 787.261708 1020.407221 779.368824 1024.373984 771.378396 1028.15379 C 763.387969 1031.933595 755.316255 1035.510186 747.146998 1038.891689 C 738.985869 1042.273193 730.743454 1045.459609 722.419754 1048.434682 C 714.096053 1051.409755 705.707323 1054.181612 697.253565 1056.750254 C 688.799806 1059.310768 680.281018 1061.668066 671.705331 1063.81402 C 663.137771 1065.959974 654.513312 1067.902713 645.848209 1069.625979 C 637.183107 1071.349245 628.477361 1072.861167 619.730972 1074.153617 C 610.992712 1075.454195 602.221938 1076.535301 593.426777 1077.396934 C 584.631617 1078.266696 575.820199 1078.916985 566.992524 1079.347801 C 558.172978 1079.786746 549.337174 1079.99809 540.501371 1079.99809 C 531.665567 1079.99809 522.829764 1079.786746 514.002089 1079.347801 C 505.174414 1078.916985 496.362997 1078.266696 487.567836 1077.396934 C 478.772676 1076.535301 470.01003 1075.454195 461.263641 1074.153617 C 452.525381 1072.861167 443.819635 1071.349245 435.154533 1069.625979 C 426.481301 1067.902713 417.864971 1065.959974 409.289283 1063.81402 C 400.721724 1061.668066 392.202936 1059.310768 383.749177 1056.750254 C 375.28729 1054.181612 366.89856 1051.409755 358.582988 1048.434682 C 350.259287 1045.459609 342.016873 1042.273193 333.847616 1038.891689 C 325.686487 1035.510186 317.606645 1031.933595 309.616217 1028.15379 C 301.633918 1024.373984 293.741034 1020.407221 285.945693 1016.237242 C 278.150352 1012.075391 270.460683 1007.718454 262.884815 1003.174559 C 255.300818 998.630664 247.83875 993.89981 240.490483 988.990127 C 233.142216 984.080444 225.924007 979.000061 218.819598 973.732719 C 211.723318 968.465377 204.757096 963.035463 197.92906 957.426719 C 191.092895 951.817975 184.403046 946.046659 177.859512 940.112771 C 171.307849 934.178883 164.91063 928.090551 158.659725 921.839647 C 152.41695 915.588742 146.320489 909.191523 140.386601 902.63986 C 134.452713 896.096326 128.681397 889.406477 123.072653 882.570312 C 117.463909 875.742276 112.033995 868.776054 106.766653 861.679774 C 101.50744 854.575365 96.418927 847.357156 91.509245 840.008889 C 86.599562 832.660622 81.868708 825.198554 77.324813 817.614557 C 72.780918 810.038689 68.432109 802.34902 64.26213 794.553679 C 60.10028 786.758338 56.125388 778.865454 52.345582 770.883155 C 48.565776 762.892727 44.989186 754.812885 41.607683 746.651756 C 38.226179 738.482499 35.039763 730.240085 32.06469 721.916384 C 29.089617 713.600812 26.31776 705.212082 23.749118 696.750195 C 21.188604 688.296436 18.831306 679.785777 16.685352 671.210089 C 14.539398 662.634401 12.596659 654.01807 10.873393 645.344839 C 9.150127 636.679737 7.638205 627.973991 6.345755 619.235731 C 5.045177 610.489342 3.964071 601.726696 3.102438 592.931536 C 2.232676 584.136375 1.582387 575.324958 1.151571 566.497283 C 0.720754 557.669608 0.501282 548.833804 0.501282 539.998001 C 0.501282 531.162198 0.720754 522.326394 1.151571 513.506848 C 1.582387 504.679173 2.232676 495.867755 3.102438 487.072595 C 3.964071 478.277434 5.045177 469.50666 6.345755 460.7684 C 7.638205 452.022011 9.150127 443.316265 10.873393 434.651163 C 12.596659 425.98606 14.539398 417.361601 16.685352 408.794041 C 18.831306 400.218354 21.188604 391.699566 23.749118 383.245807 C 26.31776 374.792049 29.089617 366.403319 32.06469 358.079618 C 35.039763 349.755917 38.226179 341.513503 41.607683 333.352374 C 44.989186 325.183117 48.565776 317.111403 52.345582 309.120976 C 56.125388 301.130548 60.10028 293.237664 64.26213 285.442323 C 68.432109 277.655111 72.780918 269.965442 77.324813 262.381445 C 81.868708 254.805577 86.599562 247.343509 91.509245 239.995242 C 96.418927 232.646975 101.50744 225.420637 106.766653 218.324357 C 112.033995 211.219948 117.463909 204.261854 123.072653 197.42569 C 128.681397 190.597654 134.452713 183.907805 140.386601 177.356142 C 146.320489 170.812607 152.41695 164.415388 158.659725 158.164484 C 164.91063 151.91358 171.307849 145.825248 177.859512 139.883231 C 184.403046 133.949343 191.092895 128.178027 197.92906 122.577412 C 204.757096 116.968668 211.723318 111.530625 218.819598 106.271412 C 225.924007 101.00407 233.142216 95.915558 240.490483 91.005875 C 247.83875 86.096192 255.300818 81.373467 262.884815 76.829572 C 270.460683 72.285676 278.150352 67.928739 285.945693 63.75876 C 293.741034 59.59691 301.633918 55.622018 309.616217 51.842212 C 317.606645 48.070535 325.686487 44.485816 333.847616 41.104313 C 342.016873 37.722809 350.259287 34.544521 358.582988 31.569449 C 366.89856 28.586247 375.28729 25.81439 383.749177 23.253876 C 392.202936 20.685234 400.721724 18.327936 409.289283 16.181982 C 417.864971 14.036028 426.481301 12.101418 435.154533 10.378152 C 443.819635 8.654886 452.525381 7.142963 461.263641 5.842385 C 470.01003 4.549935 478.772676 3.46883 487.567836 2.599068 C 496.362997 1.737435 505.174414 1.087146 514.002089 0.648201 C 522.829764 0.217384 531.665567 -0.00208843 540.501371 -0.00208843 C 549.337174 -0.00208843 558.172978 0.217384 566.992524 0.648201 C 575.820199 1.087146 584.631617 1.737435 593.426777 2.599068 C 602.221938 3.46883 610.992712 4.549935 619.730972 5.842385 C 628.477361 7.142963 637.183107 8.654886 645.848209 10.378152 C 654.513312 12.101418 663.137771 14.036028 671.705331 16.181982 C 680.281018 18.327936 688.799806 20.685234 697.253565 23.253876 C 705.707323 25.81439 714.096053 28.586247 722.419754 31.569449 C 730.743454 34.544521 738.985869 37.722809 747.146998 41.104313 C 755.316255 44.485816 763.387969 48.070535 771.378396 51.842212 C 779.368824 55.622018 787.261708 59.59691 795.057049 63.75876 C 802.844261 67.928739 810.53393 72.285676 818.117927 76.829572 C 825.693795 81.373467 833.155863 86.096192 840.50413 91.005875 C 847.852397 95.915558 855.078735 101.00407 862.175015 106.271412 C 869.279424 111.530625 876.237518 116.968668 883.073682 122.577412 C 889.901718 128.178027 896.591567 133.949343 903.14323 139.883231 C 909.686764 145.825248 916.092112 151.91358 922.334888 158.164484 C 928.585792 164.415388 934.682253 170.812607 940.616141 177.356142 C 946.550029 183.907805 952.321345 190.597654 957.92196 197.42569 C 963.530704 204.261854 968.968747 211.219948 974.22796 218.324357 C 979.495302 225.420637 984.583814 232.646975 989.493497 239.995242 C 994.40318 247.343509 999.125905 254.805577 1003.6698 262.381445 C 1008.213696 269.965442 1012.570633 277.655111 1016.740612 285.442323 C 1020.902462 293.237664 1024.877354 301.130548 1028.65716 309.120976 C 1032.428837 317.111403 1036.013556 325.183117 1039.395059 333.352374 C 1042.776563 341.513503 1045.954851 349.755917 1048.929923 358.079618 C 1051.913125 366.403319 1054.684982 374.792049 1057.245496 383.245807 C 1059.814138 391.699566 1062.171436 400.218354 1064.31739 408.794041 C 1066.463344 417.361601 1068.397954 425.98606 1070.12122 434.651163 C 1071.844486 443.316265 1073.356409 452.022011 1074.656987 460.7684 C 1075.949437 469.50666 1077.030542 478.277434 1077.900304 487.072595 C 1078.761937 495.867755 1079.412226 504.679173 1079.851171 513.506848 C 1080.281988 522.326394 1080.50146 531.162198 1080.50146 539.998001 Z M 1080.50146 539.998001 " transform="matrix(0.480555,0,0,0.480555,-38.83855,-184.362278)"/></g><path style=" stroke:none;fill-rule:nonzero;fill:#130073;fill-opacity:1;" d="M 179.8125 55.289062 L 186.0625 55.289062 L 202.246094 91.511719 L 195.519531 91.511719 L 190.484375 80.371094 L 175.488281 80.3125 L 170.550781 91.511719 L 163.820312 91.511719 Z M 188.210938 75.265625 L 182.921875 63.523438 L 177.746094 75.265625 Z M 188.210938 75.265625 "/><path style=" stroke:none;fill-rule:nonzero;fill:#130073;fill-opacity:1;" d="M 205.433594 55.726562 C 205.800781 55.480469 206.199219 55.289062 206.625 55.160156 C 207.050781 55.027344 207.484375 54.964844 207.929688 54.964844 C 208.375 54.964844 208.8125 55.027344 209.238281 55.160156 C 209.664062 55.289062 210.0625 55.480469 210.429688 55.726562 C 210.765625 55.945312 211.027344 56.230469 211.214844 56.582031 C 211.40625 56.933594 211.5 57.308594 211.496094 57.707031 C 211.503906 58.113281 211.410156 58.496094 211.222656 58.855469 C 211.03125 59.21875 210.769531 59.511719 210.429688 59.734375 C 210.0625 59.988281 209.664062 60.175781 209.238281 60.308594 C 208.8125 60.4375 208.378906 60.503906 207.929688 60.503906 C 207.484375 60.503906 207.050781 60.4375 206.625 60.308594 C 206.199219 60.175781 205.800781 59.988281 205.433594 59.734375 C 205.09375 59.511719 204.832031 59.21875 204.640625 58.855469 C 204.453125 58.496094 204.359375 58.113281 204.367188 57.707031 C 204.363281 57.308594 204.457031 56.933594 204.644531 56.582031 C 204.835938 56.230469 205.097656 55.945312 205.433594 55.726562 Z M 204.691406 63.6875 L 211.113281 63.6875 L 211.113281 91.511719 L 204.691406 91.511719 Z M 204.691406 63.6875 "/><path style=" stroke:none;fill-rule:nonzero;fill:#130073;fill-opacity:1;" d="M 215.617188 63.6875 L 222.035156 63.6875 L 222.035156 70.4375 C 222.410156 69.316406 222.96875 68.292969 223.714844 67.371094 C 224.457031 66.449219 225.339844 65.691406 226.359375 65.089844 C 228.515625 63.757812 230.863281 63.101562 233.394531 63.125 C 235.851562 63.085938 238.144531 63.671875 240.28125 64.878906 C 242.375 66.09375 243.976562 67.777344 245.089844 69.929688 C 246.328125 72.378906 246.914062 74.976562 246.847656 77.722656 L 246.847656 91.496094 L 240.417969 91.496094 L 240.417969 77.679688 C 240.46875 75.910156 240.074219 74.246094 239.238281 72.6875 C 238.480469 71.308594 237.398438 70.257812 236 69.535156 C 234.582031 68.800781 233.070312 68.445312 231.472656 68.460938 C 229.855469 68.449219 228.332031 68.816406 226.894531 69.558594 C 225.460938 70.292969 224.339844 71.351562 223.53125 72.746094 C 222.664062 74.277344 222.25 75.921875 222.296875 77.679688 L 222.296875 91.511719 L 215.617188 91.511719 Z M 215.617188 63.6875 "/><path style=" stroke:none;fill-rule:nonzero;fill:#130073;fill-opacity:1;" d="M 250.457031 63.6875 L 256.875 63.6875 L 256.875 70.4375 C 257.25 69.316406 257.8125 68.292969 258.554688 67.371094 C 259.300781 66.453125 260.179688 65.691406 261.199219 65.089844 C 263.355469 63.757812 265.703125 63.101562 268.238281 63.125 C 270.691406 63.085938 272.984375 63.667969 275.121094 64.878906 C 277.21875 66.09375 278.820312 67.777344 279.929688 69.929688 C 281.175781 72.382812 281.761719 74.984375 281.691406 77.738281 L 281.691406 91.511719 L 275.265625 91.511719 L 275.265625 77.679688 C 275.316406 75.910156 274.921875 74.246094 274.085938 72.6875 C 273.324219 71.308594 272.246094 70.257812 270.847656 69.535156 C 269.425781 68.800781 267.917969 68.445312 266.320312 68.460938 C 264.703125 68.449219 263.175781 68.816406 261.738281 69.558594 C 260.308594 70.292969 259.1875 71.355469 258.375 72.746094 C 257.507812 74.277344 257.097656 75.921875 257.140625 77.679688 L 257.140625 91.511719 L 250.457031 91.511719 Z M 250.457031 63.6875 "/><path style=" stroke:none;fill-rule:nonzero;fill:#130073;fill-opacity:1;" d="M 292.9375 90.195312 C 290.609375 88.980469 288.753906 87.257812 287.367188 85.03125 C 285.957031 82.765625 285.273438 80.296875 285.308594 77.628906 C 285.25 74.890625 285.925781 72.347656 287.339844 70 C 288.695312 67.785156 290.535156 66.089844 292.855469 64.921875 C 295.316406 63.6875 297.921875 63.085938 300.675781 63.125 C 303.449219 63.082031 306.085938 63.675781 308.574219 64.90625 C 310.90625 66.070312 312.753906 67.765625 314.121094 69.984375 C 315.527344 72.332031 316.203125 74.875 316.148438 77.613281 C 316.167969 78.90625 316.007812 80.175781 315.671875 81.425781 C 315.335938 82.671875 314.835938 83.851562 314.171875 84.960938 C 313.507812 86.070312 312.707031 87.070312 311.765625 87.957031 C 310.824219 88.84375 309.78125 89.582031 308.632812 90.179688 C 306.136719 91.472656 303.484375 92.09375 300.675781 92.042969 C 297.9375 92.078125 295.359375 91.460938 292.9375 90.195312 Z M 292.9375 82.292969 C 293.722656 83.671875 294.800781 84.761719 296.175781 85.554688 C 297.550781 86.359375 299.03125 86.753906 300.621094 86.738281 C 302.238281 86.753906 303.753906 86.367188 305.171875 85.585938 C 306.570312 84.820312 307.667969 83.75 308.46875 82.375 C 309.300781 80.921875 309.703125 79.355469 309.675781 77.679688 C 309.707031 75.984375 309.3125 74.394531 308.492188 72.90625 C 307.710938 71.511719 306.625 70.421875 305.230469 69.640625 C 303.796875 68.839844 302.261719 68.445312 300.621094 68.460938 C 299.015625 68.445312 297.515625 68.828125 296.117188 69.617188 C 294.742188 70.390625 293.671875 71.46875 292.90625 72.851562 C 292.089844 74.347656 291.699219 75.949219 291.730469 77.65625 C 291.707031 79.3125 292.109375 80.859375 292.9375 82.292969 Z M 292.9375 82.292969 "/><path style=" stroke:none;fill-rule:nonzero;fill:#130073;fill-opacity:1;" d="M 315.332031 63.6875 L 321.75 63.6875 L 330.203125 84.542969 L 338.652344 63.6875 L 345.078125 63.6875 L 333.273438 91.511719 L 327.179688 91.511719 Z M 315.332031 63.6875 "/><path style=" stroke:none;fill-rule:nonzero;fill:#130073;fill-opacity:1;" d="M 352.121094 90.136719 C 350 88.859375 348.355469 87.128906 347.183594 84.949219 C 345.964844 82.703125 345.371094 80.300781 345.398438 77.742188 C 345.332031 74.996094 345.914062 72.398438 347.152344 69.949219 C 348.261719 67.796875 349.867188 66.113281 351.957031 64.898438 C 354.09375 63.683594 356.390625 63.089844 358.84375 63.125 C 361.371094 63.097656 363.714844 63.75 365.867188 65.074219 C 366.886719 65.675781 367.769531 66.4375 368.511719 67.359375 C 369.257812 68.277344 369.816406 69.300781 370.191406 70.421875 L 370.191406 63.6875 L 376.609375 63.6875 L 376.609375 91.511719 L 370.207031 91.511719 L 370.207031 84.652344 C 369.828125 85.761719 369.277344 86.773438 368.550781 87.691406 C 367.824219 88.609375 366.96875 89.378906 365.976562 90 C 363.917969 91.378906 361.648438 92.066406 359.171875 92.058594 C 356.636719 92.089844 354.289062 91.449219 352.121094 90.136719 Z M 353.054688 82.316406 C 353.863281 83.683594 354.957031 84.753906 356.347656 85.527344 C 357.714844 86.300781 359.1875 86.6875 360.761719 86.679688 C 362.371094 86.6875 363.882812 86.300781 365.292969 85.527344 C 366.703125 84.761719 367.824219 83.691406 368.65625 82.316406 C 369.523438 80.890625 369.941406 79.347656 369.917969 77.679688 C 369.960938 75.925781 369.546875 74.289062 368.671875 72.769531 C 367.859375 71.375 366.738281 70.304688 365.308594 69.558594 C 363.882812 68.8125 362.363281 68.449219 360.753906 68.460938 C 359.566406 68.425781 358.421875 68.621094 357.3125 69.042969 C 356.203125 69.464844 355.222656 70.085938 354.363281 70.902344 C 352.660156 72.535156 351.808594 74.792969 351.808594 77.679688 C 351.789062 79.34375 352.203125 80.886719 353.054688 82.316406 Z M 353.054688 82.316406 "/><path style=" stroke:none;fill-rule:nonzero;fill:#130073;fill-opacity:1;" d="M 395.777344 91.839844 C 393.839844 91.855469 392.003906 91.445312 390.257812 90.605469 C 388.539062 89.777344 387.175781 88.550781 386.175781 86.925781 C 385.074219 85.074219 384.5625 83.070312 384.636719 80.917969 L 384.636719 69.011719 L 380.246094 69.011719 L 380.246094 63.414062 C 381.261719 63.476562 382.222656 63.277344 383.128906 62.8125 C 383.777344 62.417969 384.1875 61.847656 384.363281 61.109375 C 384.574219 60.09375 384.664062 59.070312 384.636719 58.035156 L 384.636719 55.289062 L 391.058594 55.289062 L 391.109375 63.414062 L 399.125 63.414062 L 399.125 69.011719 L 391.058594 69.011719 L 391.058594 80.207031 C 391.058594 82 391.585938 83.410156 392.648438 84.429688 C 393.195312 84.949219 393.820312 85.34375 394.523438 85.609375 C 395.226562 85.875 395.957031 85.996094 396.707031 85.96875 C 397.894531 85.941406 399.027344 85.6875 400.109375 85.199219 L 401.207031 90.742188 C 399.46875 91.472656 397.660156 91.839844 395.777344 91.839844 Z M 395.777344 91.839844 "/><path style=" stroke:none;fill-rule:nonzero;fill:#130073;fill-opacity:1;" d="M 409.824219 90.246094 C 407.539062 89.042969 405.71875 87.339844 404.363281 85.144531 C 402.953125 82.855469 402.269531 80.367188 402.3125 77.679688 C 402.238281 74.878906 402.914062 72.269531 404.335938 69.851562 C 405.65625 67.667969 407.460938 66.003906 409.742188 64.859375 C 412.0625 63.6875 414.523438 63.109375 417.121094 63.125 C 419.582031 63.09375 421.914062 63.625 424.117188 64.714844 C 426.25 65.785156 427.960938 67.320312 429.25 69.324219 C 430.640625 71.527344 431.429688 73.929688 431.609375 76.53125 C 431.675781 76.949219 431.710938 77.367188 431.722656 77.789062 C 431.707031 78.214844 431.671875 78.636719 431.609375 79.054688 L 408.394531 79.105469 C 408.523438 80.582031 409.039062 81.90625 409.933594 83.085938 C 410.800781 84.226562 411.878906 85.117188 413.160156 85.757812 C 414.441406 86.398438 415.800781 86.726562 417.234375 86.738281 C 418.839844 86.75 420.355469 86.394531 421.789062 85.667969 C 423.175781 84.96875 424.234375 83.9375 424.96875 82.566406 L 429.800781 85.03125 C 428.546875 87.253906 426.800781 88.976562 424.5625 90.195312 C 423.429688 90.800781 422.238281 91.261719 420.996094 91.578125 C 419.75 91.894531 418.484375 92.054688 417.199219 92.058594 C 415.914062 92.0625 414.648438 91.910156 413.398438 91.605469 C 412.152344 91.296875 410.960938 90.847656 409.824219 90.246094 Z M 425.574219 75.378906 C 425.429688 74.375 425.105469 73.433594 424.597656 72.554688 C 424.089844 71.675781 423.4375 70.925781 422.640625 70.296875 C 421.878906 69.671875 421.03125 69.195312 420.101562 68.867188 C 419.175781 68.535156 418.21875 68.371094 417.234375 68.375 C 416.234375 68.367188 415.261719 68.527344 414.320312 68.859375 C 413.378906 69.1875 412.519531 69.667969 411.746094 70.296875 C 410.945312 70.9375 410.296875 71.703125 409.796875 72.59375 C 409.300781 73.488281 408.988281 74.441406 408.863281 75.453125 Z M 425.574219 75.378906 "/><path style=" stroke:none;fill-rule:nonzero;fill:#130073;fill-opacity:1;" d="M 140.589844 111.46875 C 139.828125 111.011719 139.230469 110.398438 138.796875 109.621094 C 138.355469 108.835938 138.136719 107.988281 138.144531 107.085938 C 138.136719 106.171875 138.355469 105.3125 138.796875 104.515625 C 139.226562 103.726562 139.824219 103.105469 140.589844 102.644531 C 141.371094 102.175781 142.21875 101.949219 143.128906 101.957031 C 144.023438 101.949219 144.859375 102.175781 145.628906 102.636719 C 146.398438 103.097656 146.992188 103.722656 147.410156 104.515625 C 147.839844 105.316406 148.050781 106.175781 148.042969 107.085938 C 148.050781 107.988281 147.832031 108.835938 147.390625 109.621094 C 146.960938 110.394531 146.367188 111.007812 145.609375 111.46875 C 144.839844 111.933594 144.003906 112.164062 143.105469 112.15625 C 142.203125 112.160156 141.363281 111.933594 140.589844 111.46875 Z M 139.699219 109.164062 C 140.03125 109.796875 140.5 110.296875 141.113281 110.667969 C 141.722656 111.035156 142.386719 111.21875 143.101562 111.21875 C 143.8125 111.21875 144.476562 111.035156 145.085938 110.667969 C 145.699219 110.296875 146.167969 109.796875 146.503906 109.164062 C 146.851562 108.515625 147.019531 107.824219 147.011719 107.085938 C 147.03125 106.316406 146.855469 105.589844 146.492188 104.914062 C 146.160156 104.300781 145.695312 103.820312 145.089844 103.472656 C 144.492188 103.140625 143.851562 102.980469 143.167969 102.992188 C 142.464844 102.980469 141.800781 103.140625 141.183594 103.472656 C 140.5625 103.8125 140.082031 104.292969 139.742188 104.914062 C 139.367188 105.59375 139.1875 106.324219 139.203125 107.097656 C 139.191406 107.832031 139.355469 108.519531 139.699219 109.164062 Z M 141.269531 104.195312 L 143.402344 104.195312 C 144.003906 104.125 144.535156 104.285156 144.992188 104.675781 C 145.308594 105.023438 145.460938 105.433594 145.449219 105.902344 C 145.464844 106.316406 145.355469 106.691406 145.121094 107.03125 C 144.839844 107.378906 144.476562 107.546875 144.03125 107.546875 L 143.632812 107.546875 L 145.074219 109.828125 L 144.167969 109.828125 L 142.726562 107.546875 L 142.089844 107.546875 L 142.089844 109.828125 L 141.269531 109.828125 Z M 143.402344 106.898438 C 144.214844 106.898438 144.625 106.574219 144.625 105.9375 C 144.632812 105.648438 144.535156 105.40625 144.328125 105.207031 C 144.058594 104.988281 143.75 104.894531 143.402344 104.921875 L 142.089844 104.921875 L 142.089844 106.90625 Z M 143.402344 106.898438 "/><path style=" stroke:none;fill-rule:nonzero;fill:#130073;fill-opacity:1;" d="M 67.425781 87.511719 L 73.878906 87.511719 C 74.457031 87.511719 75.027344 87.566406 75.59375 87.679688 C 76.160156 87.792969 76.710938 87.960938 77.242188 88.179688 C 77.773438 88.402344 78.28125 88.671875 78.761719 88.992188 C 79.242188 89.3125 79.683594 89.675781 80.09375 90.085938 C 80.5 90.492188 80.863281 90.9375 81.183594 91.417969 C 81.503906 91.894531 81.777344 92.402344 81.996094 92.933594 C 82.21875 93.46875 82.382812 94.015625 82.496094 94.582031 C 82.609375 95.148438 82.664062 95.71875 82.664062 96.296875 L 82.664062 102.75 C 82.664062 103.328125 82.609375 103.898438 82.496094 104.464844 C 82.382812 105.03125 82.21875 105.578125 81.996094 106.113281 C 81.777344 106.644531 81.503906 107.152344 81.183594 107.628906 C 80.863281 108.109375 80.5 108.554688 80.09375 108.960938 C 79.683594 109.371094 79.242188 109.734375 78.761719 110.054688 C 78.28125 110.375 77.773438 110.644531 77.242188 110.867188 C 76.710938 111.085938 76.160156 111.253906 75.59375 111.367188 C 75.027344 111.480469 74.457031 111.535156 73.878906 111.535156 L 67.425781 111.535156 C 66.851562 111.535156 66.277344 111.480469 65.714844 111.367188 C 65.148438 111.253906 64.597656 111.085938 64.066406 110.867188 C 63.53125 110.644531 63.027344 110.375 62.546875 110.054688 C 62.066406 109.734375 61.621094 109.371094 61.214844 108.960938 C 60.808594 108.554688 60.441406 108.109375 60.121094 107.628906 C 59.800781 107.152344 59.53125 106.644531 59.3125 106.113281 C 59.089844 105.578125 58.921875 105.03125 58.8125 104.464844 C 58.699219 103.898438 58.640625 103.328125 58.640625 102.75 L 58.640625 96.296875 C 58.640625 95.71875 58.699219 95.148438 58.8125 94.582031 C 58.921875 94.015625 59.089844 93.46875 59.3125 92.933594 C 59.53125 92.402344 59.800781 91.894531 60.121094 91.417969 C 60.441406 90.9375 60.808594 90.492188 61.214844 90.085938 C 61.621094 89.675781 62.066406 89.3125 62.546875 88.992188 C 63.027344 88.671875 63.53125 88.402344 64.066406 88.179688 C 64.597656 87.960938 65.148438 87.792969 65.714844 87.679688 C 66.277344 87.566406 66.851562 87.511719 67.425781 87.511719 Z M 67.425781 87.511719 "/><path style=" stroke:none;fill-rule:nonzero;fill:#130073;fill-opacity:1;" d="M 73.921875 39.097656 L 67.476562 39.097656 C 66.898438 39.097656 66.328125 39.152344 65.761719 39.265625 C 65.195312 39.378906 64.648438 39.546875 64.113281 39.765625 C 63.582031 39.988281 63.074219 40.257812 62.59375 40.578125 C 62.117188 40.898438 61.671875 41.265625 61.265625 41.671875 C 60.855469 42.078125 60.492188 42.523438 60.171875 43.003906 C 59.851562 43.480469 59.578125 43.988281 59.359375 44.519531 C 59.136719 45.050781 58.96875 45.601562 58.855469 46.167969 C 58.742188 46.734375 58.6875 47.304688 58.683594 47.878906 L 58.683594 54.042969 C 58.683594 54.644531 58.621094 55.242188 58.503906 55.835938 C 58.386719 56.425781 58.210938 57.003906 57.984375 57.5625 C 57.753906 58.121094 57.472656 58.652344 57.140625 59.15625 C 56.808594 59.660156 56.433594 60.128906 56.011719 60.5625 C 55.589844 60.992188 55.128906 61.382812 54.632812 61.726562 C 54.136719 62.070312 53.609375 62.359375 53.058594 62.601562 C 52.503906 62.84375 51.933594 63.03125 51.34375 63.164062 C 50.753906 63.296875 50.160156 63.371094 49.554688 63.386719 L 43.167969 63.386719 C 42.589844 63.390625 42.019531 63.445312 41.453125 63.558594 C 40.890625 63.671875 40.339844 63.839844 39.808594 64.058594 C 39.273438 64.28125 38.769531 64.550781 38.289062 64.871094 C 37.808594 65.191406 37.367188 65.558594 36.957031 65.964844 C 36.550781 66.375 36.1875 66.816406 35.867188 67.296875 C 35.546875 67.777344 35.273438 68.28125 35.054688 68.816406 C 34.832031 69.347656 34.664062 69.898438 34.554688 70.464844 C 34.441406 71.03125 34.382812 71.601562 34.382812 72.175781 L 34.382812 78.34375 C 34.382812 78.957031 34.324219 79.566406 34.203125 80.167969 C 34.082031 80.769531 33.90625 81.351562 33.667969 81.921875 C 33.433594 82.488281 33.144531 83.027344 32.804688 83.535156 C 32.464844 84.046875 32.074219 84.519531 31.640625 84.953125 C 31.207031 85.386719 30.734375 85.773438 30.226562 86.117188 C 29.714844 86.457031 29.175781 86.746094 28.609375 86.980469 C 28.042969 87.214844 27.457031 87.394531 26.855469 87.511719 C 26.253906 87.632812 25.644531 87.695312 25.03125 87.695312 L 18.867188 87.695312 C 18.289062 87.695312 17.71875 87.753906 17.152344 87.863281 C 16.589844 87.976562 16.039062 88.144531 15.507812 88.367188 C 14.972656 88.585938 14.46875 88.859375 13.988281 89.179688 C 13.507812 89.5 13.066406 89.863281 12.65625 90.269531 C 12.25 90.679688 11.886719 91.121094 11.566406 91.601562 C 11.246094 92.082031 10.972656 92.585938 10.753906 93.117188 C 10.53125 93.652344 10.367188 94.199219 10.253906 94.765625 C 10.140625 95.332031 10.082031 95.902344 10.082031 96.480469 L 10.082031 102.933594 C 10.082031 103.507812 10.140625 104.082031 10.253906 104.644531 C 10.367188 105.210938 10.53125 105.761719 10.753906 106.292969 C 10.972656 106.824219 11.246094 107.332031 11.566406 107.8125 C 11.886719 108.289062 12.25 108.734375 12.65625 109.140625 C 13.066406 109.550781 13.507812 109.914062 13.988281 110.234375 C 14.46875 110.554688 14.972656 110.824219 15.507812 111.046875 C 16.039062 111.265625 16.589844 111.433594 17.152344 111.546875 C 17.71875 111.660156 18.289062 111.71875 18.867188 111.71875 L 25.320312 111.71875 C 25.898438 111.71875 26.46875 111.660156 27.035156 111.546875 C 27.597656 111.433594 28.148438 111.265625 28.679688 111.046875 C 29.214844 110.824219 29.71875 110.554688 30.199219 110.234375 C 30.679688 109.914062 31.121094 109.550781 31.527344 109.140625 C 31.9375 108.734375 32.300781 108.289062 32.621094 107.8125 C 32.941406 107.332031 33.210938 106.824219 33.433594 106.292969 C 33.65625 105.761719 33.820312 105.210938 33.933594 104.644531 C 34.046875 104.082031 34.105469 103.507812 34.105469 102.933594 L 34.105469 96.761719 C 34.109375 96.160156 34.167969 95.5625 34.285156 94.96875 C 34.40625 94.375 34.578125 93.800781 34.808594 93.242188 C 35.035156 92.683594 35.316406 92.152344 35.648438 91.648438 C 35.980469 91.140625 36.355469 90.675781 36.777344 90.242188 C 37.203125 89.808594 37.660156 89.421875 38.15625 89.078125 C 38.652344 88.734375 39.179688 88.441406 39.730469 88.199219 C 40.285156 87.957031 40.855469 87.769531 41.445312 87.640625 C 42.035156 87.507812 42.632812 87.433594 43.234375 87.414062 L 49.601562 87.414062 C 50.179688 87.414062 50.75 87.359375 51.316406 87.246094 C 51.882812 87.132812 52.429688 86.964844 52.964844 86.742188 C 53.496094 86.523438 54.003906 86.253906 54.484375 85.929688 C 54.960938 85.609375 55.40625 85.246094 55.8125 84.839844 C 56.222656 84.429688 56.585938 83.988281 56.90625 83.507812 C 57.226562 83.027344 57.496094 82.519531 57.71875 81.988281 C 57.9375 81.457031 58.105469 80.90625 58.21875 80.339844 C 58.332031 79.773438 58.386719 79.203125 58.386719 78.625 L 58.386719 72.460938 C 58.390625 71.847656 58.449219 71.238281 58.570312 70.636719 C 58.691406 70.035156 58.871094 69.449219 59.109375 68.882812 C 59.34375 68.316406 59.632812 67.777344 59.976562 67.269531 C 60.316406 66.757812 60.707031 66.289062 61.140625 65.855469 C 61.574219 65.421875 62.050781 65.035156 62.558594 64.691406 C 63.070312 64.351562 63.609375 64.066406 64.179688 63.832031 C 64.746094 63.597656 65.332031 63.421875 65.933594 63.300781 C 66.535156 63.183594 67.144531 63.125 67.757812 63.125 L 73.921875 63.125 C 74.5 63.125 75.070312 63.066406 75.636719 62.953125 C 76.203125 62.839844 76.75 62.671875 77.285156 62.453125 C 77.816406 62.230469 78.324219 61.960938 78.800781 61.640625 C 79.28125 61.320312 79.726562 60.957031 80.132812 60.546875 C 80.539062 60.140625 80.90625 59.695312 81.226562 59.21875 C 81.546875 58.738281 81.816406 58.230469 82.035156 57.699219 C 82.257812 57.167969 82.425781 56.617188 82.539062 56.050781 C 82.652344 55.488281 82.707031 54.914062 82.707031 54.339844 L 82.707031 47.871094 C 82.707031 47.292969 82.648438 46.722656 82.535156 46.160156 C 82.421875 45.59375 82.253906 45.046875 82.035156 44.515625 C 81.8125 43.980469 81.542969 43.476562 81.222656 42.996094 C 80.902344 42.519531 80.535156 42.074219 80.128906 41.667969 C 79.722656 41.261719 79.277344 40.898438 78.800781 40.578125 C 78.320312 40.257812 77.8125 39.988281 77.28125 39.765625 C 76.75 39.546875 76.199219 39.378906 75.636719 39.265625 C 75.070312 39.152344 74.5 39.097656 73.921875 39.097656 Z M 73.921875 39.097656 "/><path style=" stroke:none;fill-rule:nonzero;fill:#130073;fill-opacity:1;" d="M 83.222656 72.171875 C 83.222656 71.597656 83.28125 71.023438 83.394531 70.460938 C 83.503906 69.894531 83.671875 69.347656 83.894531 68.8125 C 84.113281 68.28125 84.382812 67.773438 84.703125 67.296875 C 85.023438 66.816406 85.390625 66.375 85.796875 65.964844 C 86.203125 65.558594 86.648438 65.195312 87.125 64.875 C 87.605469 64.550781 88.109375 64.28125 88.644531 64.0625 C 89.175781 63.839844 89.726562 63.671875 90.289062 63.558594 C 90.855469 63.445312 91.425781 63.390625 92.003906 63.386719 L 98.457031 63.386719 C 99.03125 63.390625 99.605469 63.445312 100.167969 63.558594 C 100.734375 63.671875 101.285156 63.839844 101.816406 64.058594 C 102.347656 64.28125 102.855469 64.550781 103.335938 64.871094 C 103.8125 65.191406 104.257812 65.554688 104.664062 65.964844 C 105.074219 66.371094 105.4375 66.816406 105.757812 67.292969 C 106.078125 67.773438 106.347656 68.28125 106.570312 68.8125 C 106.789062 69.34375 106.957031 69.894531 107.070312 70.460938 C 107.183594 71.023438 107.238281 71.597656 107.242188 72.171875 L 107.242188 78.339844 C 107.242188 78.953125 107.300781 79.558594 107.421875 80.164062 C 107.542969 80.765625 107.71875 81.347656 107.957031 81.917969 C 108.191406 82.484375 108.480469 83.023438 108.820312 83.53125 C 109.160156 84.042969 109.550781 84.515625 109.984375 84.949219 C 110.417969 85.382812 110.890625 85.769531 111.402344 86.113281 C 111.914062 86.453125 112.449219 86.742188 113.019531 86.976562 C 113.585938 87.210938 114.171875 87.390625 114.773438 87.507812 C 115.375 87.628906 115.984375 87.691406 116.597656 87.691406 L 122.757812 87.691406 C 123.332031 87.691406 123.902344 87.75 124.46875 87.863281 C 125.03125 87.976562 125.578125 88.144531 126.109375 88.367188 C 126.640625 88.589844 127.148438 88.859375 127.625 89.179688 C 128.101562 89.503906 128.542969 89.867188 128.949219 90.273438 C 129.359375 90.679688 129.71875 91.125 130.039062 91.605469 C 130.359375 92.082031 130.628906 92.585938 130.847656 93.121094 C 131.070312 93.652344 131.234375 94.199219 131.347656 94.765625 C 131.460938 95.328125 131.519531 95.898438 131.519531 96.472656 L 131.519531 102.929688 C 131.519531 103.503906 131.460938 104.074219 131.347656 104.640625 C 131.234375 105.207031 131.066406 105.753906 130.847656 106.289062 C 130.625 106.820312 130.355469 107.328125 130.035156 107.804688 C 129.714844 108.285156 129.351562 108.730469 128.941406 109.136719 C 128.535156 109.542969 128.089844 109.910156 127.613281 110.230469 C 127.132812 110.550781 126.625 110.820312 126.09375 111.042969 C 125.5625 111.261719 125.011719 111.429688 124.445312 111.542969 C 123.882812 111.65625 123.308594 111.710938 122.734375 111.710938 L 116.285156 111.710938 C 115.707031 111.710938 115.136719 111.65625 114.570312 111.542969 C 114.007812 111.429688 113.457031 111.261719 112.925781 111.042969 C 112.390625 110.820312 111.886719 110.550781 111.40625 110.230469 C 110.925781 109.910156 110.484375 109.542969 110.074219 109.136719 C 109.667969 108.730469 109.304688 108.285156 108.984375 107.804688 C 108.664062 107.328125 108.390625 106.820312 108.171875 106.289062 C 107.949219 105.753906 107.785156 105.207031 107.671875 104.640625 C 107.558594 104.074219 107.5 103.503906 107.5 102.929688 L 107.5 96.761719 C 107.496094 96.160156 107.4375 95.5625 107.316406 94.96875 C 107.199219 94.375 107.027344 93.800781 106.796875 93.242188 C 106.566406 92.683594 106.285156 92.152344 105.953125 91.648438 C 105.625 91.144531 105.246094 90.675781 104.824219 90.242188 C 104.402344 89.8125 103.941406 89.421875 103.445312 89.082031 C 102.949219 88.738281 102.425781 88.445312 101.871094 88.203125 C 101.320312 87.960938 100.746094 87.773438 100.160156 87.640625 C 99.570312 87.507812 98.972656 87.433594 98.371094 87.414062 L 91.976562 87.414062 C 91.402344 87.414062 90.832031 87.355469 90.269531 87.242188 C 89.703125 87.125 89.15625 86.957031 88.625 86.734375 C 88.09375 86.515625 87.589844 86.242188 87.113281 85.921875 C 86.632812 85.601562 86.191406 85.234375 85.785156 84.828125 C 85.378906 84.421875 85.015625 83.976562 84.699219 83.496094 C 84.378906 83.019531 84.109375 82.511719 83.890625 81.980469 C 83.667969 81.449219 83.503906 80.902344 83.390625 80.335938 C 83.277344 79.773438 83.222656 79.203125 83.222656 78.625 Z M 83.222656 72.171875 "/></g></svg>